<?xml version="1.0" encoding="UTF-8" standalone="no"?>
<!DOCTYPE svg PUBLIC "-//W3C//DTD SVG 1.1//EN" "http://www.w3.org/Graphics/SVG/1.1/DTD/svg11.dtd">
<svg width="100%" height="100%" viewBox="0 0 100 56" version="1.1" xmlns="http://www.w3.org/2000/svg" xmlns:xlink="http://www.w3.org/1999/xlink" xml:space="preserve" xmlns:serif="http://www.serif.com/" style="fill-rule:evenodd;clip-rule:evenodd;stroke-linejoin:round;stroke-miterlimit:2;">
    <g transform="matrix(1,0,0,1,-6033,-4664)">
        <g id="Ammo_icon" transform="matrix(1,0,0,1,1179.11,1108.64)">
            <rect x="4854.68" y="3555.91" width="98.481" height="54.864" style="fill:none;"/>
            <clipPath id="_clip1">
                <rect x="4854.68" y="3555.91" width="98.481" height="54.864"/>
            </clipPath>
            <g clip-path="url(#_clip1)">
                <g transform="matrix(1,0,0,1,12.8638,1761.89)">
                    <path d="M4913.66,1849.8L4874.84,1849.8C4867.12,1837.82 4864.51,1822.76 4868.64,1809.04C4870.09,1804.19 4872.21,1799.56 4874.71,1795.16L4874.84,1794.94L4913.66,1794.94C4925.42,1794.98 4936.69,1803.31 4940,1814.7C4944.67,1830.76 4931.78,1849.75 4913.66,1849.8ZM4861.9,1794.94C4853.96,1811.6 4853.05,1828.87 4860.61,1846.89C4861.01,1847.86 4861.44,1848.83 4861.9,1849.8L4849.27,1849.8C4840.16,1831.21 4840.29,1812.91 4849.27,1794.94L4861.9,1794.94ZM4930.84,1820.88C4930.04,1822.22 4929.06,1823.46 4927.9,1824.52C4924.81,1827.37 4920.64,1828.99 4916.4,1829.01L4878.76,1829.01C4879.52,1830.61 4880.51,1832.12 4881.71,1833.47C4885.26,1837.44 4890.32,1839.71 4895.64,1839.72C4900.84,1839.77 4907.09,1839.76 4913.88,1839.69C4923.41,1839.54 4931.35,1830.31 4930.84,1820.88Z" style="fill:white;"/>
                </g>
            </g>
        </g>
    </g>
</svg>
