<?xml version="1.0" encoding="UTF-8" standalone="no"?>
<!DOCTYPE svg PUBLIC "-//W3C//DTD SVG 1.1//EN" "http://www.w3.org/Graphics/SVG/1.1/DTD/svg11.dtd">
<svg width="100%" height="100%" viewBox="0 0 86 117" version="1.1" xmlns="http://www.w3.org/2000/svg" xmlns:xlink="http://www.w3.org/1999/xlink" xml:space="preserve" xmlns:serif="http://www.serif.com/" style="fill-rule:evenodd;clip-rule:evenodd;stroke-linejoin:round;stroke-miterlimit:2;">
    <g transform="matrix(1,0,0,1,-6843,-5184)">
        <g id="Backpack_icon" transform="matrix(1,0,0,1,1179.54,3076.36)">
            <rect x="5663.81" y="2108.17" width="85.556" height="115.493" style="fill:none;"/>
            <clipPath id="_clip1">
                <rect x="5663.81" y="2108.17" width="85.556" height="115.493"/>
            </clipPath>
            <g clip-path="url(#_clip1)">
                <g transform="matrix(1,0,0,1,-29.8802,351.7)">
                    <path d="M5770.32,1872.14L5704.23,1872.14C5698.85,1872.14 5694.49,1867.78 5694.49,1862.41L5694.49,1822.28C5694.49,1817.9 5697.39,1814.19 5701.38,1812.97L5701.38,1786.93C5701.38,1774.85 5711.17,1765.05 5723.26,1765.05L5723.63,1765.05L5723.63,1765.05C5723.63,1762.82 5724.52,1760.68 5726.1,1759.11C5727.67,1757.53 5729.81,1756.65 5732.04,1756.65L5742.51,1756.65C5744.73,1756.65 5746.87,1757.53 5748.45,1759.11C5750.02,1760.68 5750.91,1762.82 5750.91,1765.05L5750.91,1765.05L5751.29,1765.05C5763.37,1765.05 5773.17,1774.85 5773.17,1786.93L5773.17,1812.97C5777.15,1814.19 5780.05,1817.9 5780.05,1822.28L5780.05,1862.41C5780.05,1867.78 5775.69,1872.14 5770.32,1872.14ZM5769.84,1832.16L5769.84,1823.94L5704.7,1823.94L5704.7,1832.16L5748.07,1832.16L5748.07,1840.38L5756.29,1840.38L5756.29,1832.16L5769.84,1832.16ZM5737.27,1783.06L5746.16,1791.95L5737.27,1800.84L5728.38,1791.95L5737.27,1783.06Z" style="fill:white;"/>
                </g>
            </g>
        </g>
    </g>
</svg>
