<?xml version="1.0" encoding="UTF-8" standalone="no"?>
<!DOCTYPE svg PUBLIC "-//W3C//DTD SVG 1.1//EN" "http://www.w3.org/Graphics/SVG/1.1/DTD/svg11.dtd">
<svg width="100%" height="100%" viewBox="0 0 30 49" version="1.1" xmlns="http://www.w3.org/2000/svg" xmlns:xlink="http://www.w3.org/1999/xlink" xml:space="preserve" xmlns:serif="http://www.serif.com/" style="fill-rule:evenodd;clip-rule:evenodd;stroke-linejoin:round;stroke-miterlimit:2;">
    <g transform="matrix(1,0,0,1,0,-145)">
        <g id="Bluetooth" transform="matrix(0.406474,0,0,0.54543,232.154,72.5133)">
            <rect x="-571.141" y="134.379" width="73.667" height="87.272" style="fill:none;"/>
            <clipPath id="_clip1">
                <rect x="-571.141" y="134.379" width="73.667" height="87.272"/>
            </clipPath>
            <g clip-path="url(#_clip1)">
                <g id="Bluetooth1" serif:id="Bluetooth" transform="matrix(4.92037,4.97169e-31,-6.06482e-32,3.66683,-1078.09,-900.4)">
                    <path d="M111.773,302.601L111.773,295.63L114.819,298.807C115.07,299.07 115.061,299.486 114.797,299.736L111.773,302.601ZM114.919,289.341L111.773,292.372L111.773,285.686L114.892,288.374C115.191,288.632 115.203,289.067 114.919,289.341ZM113.149,293.586L117.813,289.107C117.964,288.962 117.962,288.727 117.809,288.584L110.977,282.386C110.52,281.971 109.787,282.295 109.787,282.913L109.787,291.788L104.774,286.754C104.504,286.483 104.061,286.483 103.791,286.753L103.193,287.352C102.93,287.615 102.936,288.038 103.207,288.292L108.832,293.585C109.11,293.848 109.11,294.277 108.832,294.54L103.207,299.833C102.936,300.087 102.93,300.51 103.193,300.773L103.791,301.371C104.061,301.642 104.504,301.642 104.774,301.37L109.787,296.337L109.787,305.342C109.787,305.911 110.46,306.21 110.883,305.831L117.889,299.524C118.042,299.38 118.042,299.144 117.889,299L113.153,294.535C112.878,294.275 112.876,293.848 113.149,293.586Z" style="fill:white;"/>
                </g>
            </g>
        </g>
    </g>
</svg>
