<?xml version="1.0" encoding="UTF-8" standalone="no"?>
<!DOCTYPE svg PUBLIC "-//W3C//DTD SVG 1.1//EN" "http://www.w3.org/Graphics/SVG/1.1/DTD/svg11.dtd">
<svg width="100%" height="100%" viewBox="0 0 88 88" version="1.1" xmlns="http://www.w3.org/2000/svg" xmlns:xlink="http://www.w3.org/1999/xlink" xml:space="preserve" xmlns:serif="http://www.serif.com/" style="fill-rule:evenodd;clip-rule:evenodd;stroke-linejoin:round;stroke-miterlimit:2;">
    <g transform="matrix(1,0,0,1,-2035,-4980)">
        <g id="Circle_green" transform="matrix(1,0,0,1,1179.42,2613.82)">
            <rect x="856.363" y="2366.66" width="87.203" height="87.203" style="fill:none;"/>
            <clipPath id="_clip1">
                <rect x="856.363" y="2366.66" width="87.203" height="87.203"/>
            </clipPath>
            <g clip-path="url(#_clip1)">
                <g transform="matrix(1,0,0,1.05727,74.4613,1394.49)">
                    <rect x="801.809" y="937.252" width="50.51" height="48.26" style="fill:rgb(0,61,0);"/>
                </g>
                <g transform="matrix(1,0,0,1,74.4613,1450.93)">
                    <path d="M825.866,916.398C849.931,916.398 869.468,935.936 869.468,960C869.468,984.064 849.931,1003.6 825.866,1003.6C801.802,1003.6 782.265,984.064 782.265,960C782.265,935.936 801.802,916.398 825.866,916.398ZM833.646,954.601L826.039,945.575C825.117,944.48 824.667,943.064 824.788,941.638C824.91,940.211 825.594,938.891 826.688,937.969C826.689,937.968 826.69,937.968 826.691,937.967C828.97,936.046 832.376,936.336 834.297,938.616C838.06,943.081 844.061,950.202 848.093,954.986C850.534,957.883 850.534,962.117 848.093,965.014C844.061,969.798 838.06,976.919 834.297,981.384C832.376,983.664 828.97,983.954 826.691,982.033C826.69,982.032 826.689,982.032 826.688,982.031C825.594,981.109 824.91,979.789 824.788,978.362C824.667,976.936 825.117,975.52 826.039,974.425L833.646,965.399L807.207,965.399C804.225,965.399 801.809,962.983 801.809,960.001C801.809,960 801.809,960 801.809,959.999C801.809,957.017 804.225,954.601 807.207,954.601L833.646,954.601Z" style="fill:rgb(64,242,64);"/>
                </g>
            </g>
        </g>
    </g>
</svg>
