<?xml version="1.0" encoding="UTF-8" standalone="no"?>
<!DOCTYPE svg PUBLIC "-//W3C//DTD SVG 1.1//EN" "http://www.w3.org/Graphics/SVG/1.1/DTD/svg11.dtd">
<svg width="100%" height="100%" viewBox="0 0 124 124" version="1.1" xmlns="http://www.w3.org/2000/svg" xmlns:xlink="http://www.w3.org/1999/xlink" xml:space="preserve" xmlns:serif="http://www.serif.com/" style="fill-rule:evenodd;clip-rule:evenodd;stroke-linejoin:round;stroke-miterlimit:2;">
    <g transform="matrix(1,0,0,1,-6805,-4994)">
        <g id="Landmine_icon" transform="matrix(1,0,0,1,1179.54,1455.48)">
            <rect x="5626.24" y="3539.16" width="123.122" height="123.122" style="fill:none;"/>
            <g transform="matrix(0.368372,0,0,0.368372,2079.6,761.997)">
                <path d="M9796.68,7588.22C9884.68,7588.49 9955.94,7623.82 9955.94,7667.3C9955.94,7704.71 9903.16,7736.09 9832.37,7744.29L9832.37,7744.29C9832.37,7744.29 9832.37,7744.29 9832.36,7744.29L9832.36,7744.29C9829.73,7744.6 9827.08,7744.87 9824.4,7745.11C9796.01,7749.94 9774.57,7774.65 9774.57,7804.22C9774.57,7804.99 9774.57,7805.41 9774.57,7805.41C9696.05,7800.32 9635.36,7767.13 9635.36,7727.01L9635.36,7667.3L9635.36,7667.04C9635.64,7623.68 9706.79,7588.49 9794.61,7588.22L9795.65,7588.22L9796.68,7588.22ZM9852.84,7616.43C9852.84,7632 9827.21,7644.65 9795.65,7644.65C9764.08,7644.65 9738.46,7632 9738.46,7616.43L9738.46,7660.71C9738.46,7676.28 9764.08,7688.93 9795.65,7688.93C9827.21,7688.93 9852.84,7676.28 9852.84,7660.71L9852.84,7616.43L9852.84,7616.43Z" style="fill:white;"/>
            </g>
        </g>
    </g>
</svg>
