<?xml version="1.0" encoding="UTF-8" standalone="no"?>
<!DOCTYPE svg PUBLIC "-//W3C//DTD SVG 1.1//EN" "http://www.w3.org/Graphics/SVG/1.1/DTD/svg11.dtd">
<svg width="100%" height="100%" viewBox="0 0 53 55" version="1.1" xmlns="http://www.w3.org/2000/svg" xmlns:xlink="http://www.w3.org/1999/xlink" xml:space="preserve" xmlns:serif="http://www.serif.com/" style="fill-rule:evenodd;clip-rule:evenodd;stroke-linejoin:round;stroke-miterlimit:2;">
    <g transform="matrix(1,0,0,1,-112,-150)">
        <g id="Location" transform="matrix(1.11565,0,0,1,-241.031,1.62747)">
            <rect x="316.914" y="149.052" width="46.685" height="53.912" style="fill:none;"/>
            <g transform="matrix(5.47282,6.93889e-18,-6.77271e-18,6.10577,4938.74,-3503.51)">
                <path d="M-838.773,607.003C-838.792,607.012 -838.811,607.019 -838.831,607.025L-838.837,607.027C-838.875,607.038 -838.915,607.044 -838.954,607.044L-838.97,607.044C-839.004,607.043 -839.038,607.038 -839.071,607.029L-839.077,607.027C-839.099,607.021 -839.12,607.013 -839.141,607.003L-839.142,607.003L-841.506,605.89L-843.87,607.003C-844.004,607.066 -844.161,607.056 -844.287,606.977C-844.412,606.897 -844.488,606.759 -844.488,606.611L-844.488,599.848C-844.488,599.68 -844.391,599.527 -844.239,599.456L-841.69,598.256L-841.69,598.255C-841.671,598.247 -841.652,598.239 -841.632,598.233L-841.626,598.232C-841.588,598.22 -841.548,598.215 -841.509,598.215L-841.493,598.215C-841.459,598.216 -841.425,598.221 -841.392,598.23L-841.386,598.232C-841.364,598.238 -841.343,598.246 -841.322,598.255L-841.321,598.256L-838.957,599.369L-836.593,598.256C-836.459,598.193 -836.302,598.202 -836.176,598.282C-836.051,598.361 -835.975,598.5 -835.975,598.648L-835.975,605.411C-835.975,605.579 -836.072,605.731 -836.224,605.803L-838.773,607.003L-838.773,607.003ZM-841.073,599.331C-841.073,599.527 -841.073,605.135 -841.073,605.135C-841.073,605.135 -839.391,605.928 -839.39,605.928L-839.39,600.123L-841.073,599.331ZM-838.524,600.123L-838.524,605.928L-836.842,605.136L-836.842,599.331L-838.524,600.123ZM-843.621,600.123L-843.621,605.928L-841.939,605.136L-841.939,599.331L-843.621,600.123Z" style="fill:white;"/>
            </g>
        </g>
    </g>
</svg>
