<?xml version="1.0" encoding="UTF-8" standalone="no"?>
<!-- Created with Inkscape (http://www.inkscape.org/) -->

<svg
   xmlns:dc="http://purl.org/dc/elements/1.1/"
   xmlns:cc="http://creativecommons.org/ns#"
   xmlns:rdf="http://www.w3.org/1999/02/22-rdf-syntax-ns#"
   xmlns:svg="http://www.w3.org/2000/svg"
   xmlns="http://www.w3.org/2000/svg"
   xmlns:sodipodi="http://sodipodi.sourceforge.net/DTD/sodipodi-0.dtd"
   xmlns:inkscape="http://www.inkscape.org/namespaces/inkscape"
   width="11.14425mm"
   height="13.12218mm"
   viewBox="0 0 11.14425 13.12218"
   version="1.1"
   id="svg8"
   inkscape:version="0.92.3 (2405546, 2018-03-11)"
   sodipodi:docname="skull.svg">
  <defs
     id="defs2" />
  <sodipodi:namedview
     id="base"
     pagecolor="#ffffff"
     bordercolor="#666666"
     borderopacity="1.0"
     inkscape:pageopacity="0.0"
     inkscape:pageshadow="2"
     inkscape:zoom="0.7"
     inkscape:cx="96.781875"
     inkscape:cy="-36.122745"
     inkscape:document-units="mm"
     inkscape:current-layer="layer1"
     showgrid="false"
     inkscape:window-width="1920"
     inkscape:window-height="1055"
     inkscape:window-x="0"
     inkscape:window-y="0"
     inkscape:window-maximized="1" />
  <metadata
     id="metadata5">
    <rdf:RDF>
      <cc:Work
         rdf:about="">
        <dc:format>image/svg+xml</dc:format>
        <dc:type
           rdf:resource="http://purl.org/dc/dcmitype/StillImage" />
        <dc:title></dc:title>
      </cc:Work>
    </rdf:RDF>
  </metadata>
  <g
     inkscape:label="Layer 1"
     inkscape:groupmode="layer"
     id="layer1"
     transform="translate(-86.654102,-119.59364)">
    <g
       style="clip-rule:evenodd;fill-rule:evenodd;stroke-linejoin:round;stroke-miterlimit:2"
       id="g418"
       transform="matrix(0.26458333,0,0,0.26458333,-2058.8336,-1590.1068)">
      <path
         inkscape:connector-curvature="0"
         id="path416"
         style="fill:#ffffff"
         d="m 8129.99,6507.72 c 0,-2.03 -1.48,-3.75 -3.48,-4.07 -9.98,-1.61 -17.58,-10.29 -17.58,-20.72 0,-11.63 9.43,-21.07 21.06,-21.07 11.62,0 21.06,9.44 21.06,21.07 0,3.66 -0.94,7.11 -2.59,10.11 -1.07,1.98 -1.64,4.2 -1.64,6.45 -0.02,1.4 -0.02,2.88 -0.02,3.91 0,0.95 -0.36,1.87 -1.01,2.57 -2.6,2.68 -6.49,4.38 -11.25,5.4 -1.11,0.24 -2.27,-0.03 -3.15,-0.74 -0.88,-0.71 -1.4,-1.78 -1.4,-2.91 0,0 0,0 0,0 z m 6.01,-13.45 c -0.14,0.42 -0.4,0.8 -0.74,1.09 -1,0.79 -2.2,1.34 -3.49,1.51 -3.39,0.43 -6.14,-1.97 -6.14,-5.36 0,-3.39 2.75,-6.49 6.14,-6.92 2.05,-0.26 3.88,0.52 4.99,1.93 0.79,0.99 1.02,2.3 0.63,3.49 -0.42,1.3 -1.07,3.29 -1.39,4.26 z m 6.26,-8.17 c -0.39,-0.64 -0.56,-1.38 -0.49,-2.12 0.15,-1.08 0.38,-2.61 0.69,-3.32 0.6,-1.39 1.48,-2.34 2.47,-2.47 1.8,-0.23 3.26,2.34 3.26,5.73 0,1.86 -0.65,3.54 -1.54,4.78 -0.12,0.16 -0.24,0.32 -0.36,0.46 -0.3,0.34 -0.74,0.52 -1.19,0.48 -0.45,-0.03 -0.85,-0.28 -1.08,-0.67 -0.58,-0.92 -1.28,-2.07 -1.76,-2.87 z" />
    </g>
  </g>
</svg>
