<?xml version="1.0" encoding="UTF-8" standalone="no"?>
<svg
   xmlns:dc="http://purl.org/dc/elements/1.1/"
   xmlns:cc="http://creativecommons.org/ns#"
   xmlns:rdf="http://www.w3.org/1999/02/22-rdf-syntax-ns#"
   xmlns:svg="http://www.w3.org/2000/svg"
   xmlns="http://www.w3.org/2000/svg"
   xmlns:sodipodi="http://sodipodi.sourceforge.net/DTD/sodipodi-0.dtd"
   xmlns:inkscape="http://www.inkscape.org/namespaces/inkscape"
   width="484.79041"
   height="117.91404"
   viewBox="0 0 484.79041 117.91404"
   version="1.1"
   xml:space="preserve"
   style="clip-rule:evenodd;fill-rule:evenodd;stroke-linejoin:round;stroke-miterlimit:2"
   id="svg24"
   sodipodi:docname="Sniper.svg"
   inkscape:version="0.92.3 (2405546, 2018-03-11)"><metadata
   id="metadata30"><rdf:RDF><cc:Work
       rdf:about=""><dc:format>image/svg+xml</dc:format><dc:type
         rdf:resource="http://purl.org/dc/dcmitype/StillImage" /><dc:title></dc:title></cc:Work></rdf:RDF></metadata><defs
   id="defs28">
        
    
            
            <clipPath
   id="_clip1">
                <rect
   x="3695.6899"
   y="3450.3201"
   width="832.06097"
   height="210.022"
   id="rect4" />
            </clipPath>
            
        
                
                
                
            </defs><sodipodi:namedview
   pagecolor="#ffffff"
   bordercolor="#666666"
   borderopacity="1"
   objecttolerance="10"
   gridtolerance="10"
   guidetolerance="10"
   inkscape:pageopacity="0"
   inkscape:pageshadow="2"
   inkscape:window-width="640"
   inkscape:window-height="480"
   id="namedview26"
   showgrid="false"
   inkscape:zoom="0.33253301"
   inkscape:cx="239.00114"
   inkscape:cy="59.400561"
   inkscape:window-x="0"
   inkscape:window-y="0"
   inkscape:window-maximized="0"
   inkscape:current-layer="svg24" />
    <rect
   x="-176.71892"
   y="-46.506451"
   width="832.06097"
   height="210.022"
   style="fill:none"
   id="rect2" /><g
   id="g13"
   transform="matrix(0.44888,0,0,0.44888,-2584.2022,-134.53652)">
                    <path
   inkscape:connector-curvature="0"
   id="path11"
   style="fill:#ffffff"
   d="m 6130.77,350.657 h -30.72 l 17.21,-50.941 h 82.39 c 0,0 8.47,3.725 17.38,7.639 13.01,5.715 27.7,6.28 41.11,1.582 12.63,-4.426 26.32,-9.221 26.32,-9.221 h 84.88 l -17.21,50.941 h -28.92 l -4.92,14.56 h 157.66 c 0,0 0,0.001 0,0.001 12.67,16.929 32.57,26.896 53.71,26.896 85.99,0 307.34,0 307.34,0 l -7.53,25.595 h -338.11 l -11.04,37.52 -29.92,22.387 h -50.72 c -18.71,0 -36.92,6.057 -51.89,17.264 0,0 0,0 0,0 -52.96,0 -163.01,0 -163.01,0 l 5.08,-17.264 h -37.26 c 0,0 -7.59,21.799 -12.32,35.404 -2.23,6.386 -8.23,10.676 -15,10.706 -9.47,0.042 -21.47,0.095 -21.47,0.095 l -13.04,38.58 h -45.58 l -11.71,-16.312 c 8.33,-24.631 23.14,-68.473 23.14,-68.473 h -73.51 l -45.54,34.075 H 5757 l 38.14,-129.664 h 156.08 c 18.21,0 35.94,-5.897 50.52,-16.81 0,0 0,0 0,0 h 124.11 z m -11.35,126.959 -10.03,29.672 h 15.74 l 10.02,-29.672 z m 65.51,-126.959 h -25.02 l -4.92,14.56 h 134.17 l 4.92,-14.56 h -24.34 c 0,0 -8.48,-3.725 -17.38,-7.639 -13.01,-5.715 -27.71,-6.281 -41.12,-1.582 -12.63,4.425 -26.31,9.221 -26.31,9.221 z" />
                </g>
</svg>