<?xml version="1.0" encoding="UTF-8" standalone="no"?>
<!DOCTYPE svg PUBLIC "-//W3C//DTD SVG 1.1//EN" "http://www.w3.org/Graphics/SVG/1.1/DTD/svg11.dtd">
<svg width="100%" height="100%" viewBox="0 0 51 39" version="1.1" xmlns="http://www.w3.org/2000/svg" xmlns:xlink="http://www.w3.org/1999/xlink" xml:space="preserve" xmlns:serif="http://www.serif.com/" style="fill-rule:evenodd;clip-rule:evenodd;stroke-linejoin:round;stroke-miterlimit:2;">
    <g transform="matrix(1,0,0,1,-40,-150)">
        <g id="Wifi" transform="matrix(0.616308,0,0,0.433775,-43.8622,92.5542)">
            <rect x="137.1" y="134" width="81.21" height="87.272" style="fill:none;"/>
            <clipPath id="_clip1">
                <rect x="137.1" y="134" width="81.21" height="87.272"/>
            </clipPath>
            <g clip-path="url(#_clip1)">
                <g id="Wifi1" serif:id="Wifi" transform="matrix(3.4146,6.57788e-31,-4.20881e-32,4.85146,34.6624,-1248.72)">
                    <path d="M41.842,288.097C45.541,288.097 48.93,289.389 51.604,291.535C51.879,291.756 52.272,291.733 52.508,291.47L53.527,290.338C53.779,290.057 53.754,289.613 53.462,289.374C50.288,286.778 46.25,285 41.842,285C37.439,285 33.408,286.772 30.239,289.36C29.946,289.599 29.92,290.042 30.173,290.324L31.19,291.457C31.425,291.72 31.818,291.743 32.092,291.523C34.764,289.384 38.148,288.097 41.842,288.097ZM41.842,294.205C43.972,294.205 45.936,294.91 47.518,296.094C47.798,296.302 48.182,296.279 48.414,296.021L49.545,294.763C49.801,294.479 49.774,294.029 49.473,293.796C47.361,292.156 44.718,291.11 41.842,291.11C38.971,291.11 36.33,292.153 34.221,293.788C33.92,294.021 33.893,294.471 34.147,294.754L35.276,296.014C35.509,296.273 35.894,296.297 36.173,296.088C37.754,294.907 39.715,294.205 41.842,294.205ZM45.496,299.264C45.767,298.961 45.708,298.485 45.371,298.258C44.357,297.577 43.144,297.134 41.841,297.134C40.539,297.134 39.33,297.576 38.316,298.254C37.978,298.48 37.919,298.957 38.191,299.26L41.351,302.782C41.613,303.073 42.068,303.073 42.331,302.782L45.496,299.264Z" style="fill:white;"/>
                </g>
            </g>
        </g>
    </g>
</svg>
